<?xml version="1.0" standalone="no"?>
<!DOCTYPE svg PUBLIC "-//W3C//DTD SVG 20010904//EN"
 "http://www.w3.org/TR/2001/REC-SVG-20010904/DTD/svg10.dtd">
<svg version="1.0" xmlns="http://www.w3.org/2000/svg"
 width="512.000000pt" height="512.000000pt" viewBox="0 0 512.000000 512.000000"
 preserveAspectRatio="xMidYMid meet">

<g transform="translate(0.000000,512.000000) scale(0.100000,-0.100000)"
fill="#000000" stroke="none">
<path d="M799 3906 c-56 -20 -96 -53 -126 -104 -24 -40 -28 -58 -28 -123 0
-67 4 -81 30 -125 19 -30 49 -60 79 -79 l49 -30 1736 -3 c1582 -2 1739 -1
1784 14 206 68 205 376 0 450 -55 19 -3470 20 -3524 0z"/>
<path d="M799 2786 c-56 -20 -96 -53 -126 -104 -24 -40 -28 -58 -28 -123 0
-67 4 -81 30 -125 19 -30 49 -60 79 -79 l49 -30 1736 -3 c1582 -2 1739 -1
1784 14 206 68 205 376 0 450 -55 19 -3470 20 -3524 0z"/>
<path d="M799 1666 c-56 -20 -96 -53 -126 -104 -24 -40 -28 -58 -28 -123 0
-67 4 -81 30 -125 19 -30 49 -60 79 -79 l49 -30 1736 -3 c1582 -2 1739 -1
1784 14 206 68 205 376 0 450 -55 19 -3470 20 -3524 0z"/>
</g>
</svg>
